<svg width="24" height="24" viewBox="0 0 24 24" fill="none" xmlns="http://www.w3.org/2000/svg">
<path opacity="0.1" fill-rule="evenodd" clip-rule="evenodd" d="M0 12C0 5.37258 5.37258 0 12 0C18.6274 0 24 5.37258 24 12C24 18.6274 18.6274 24 12 24C5.37258 24 0 18.6274 0 12Z" fill="white"/>
<path fill-rule="evenodd" clip-rule="evenodd" d="M18.4 11.9911C18.4 12.4239 18.3559 12.8561 18.2694 13.2775C18.185 13.6888 18.06 14.0926 17.8962 14.4786C17.7363 14.8578 17.5378 15.2232 17.3059 15.5639C17.0775 15.9026 16.8143 16.2202 16.5252 16.5098C16.2355 16.7982 15.9168 17.0606 15.5783 17.29C15.2364 17.5203 14.8705 17.7184 14.4911 17.8792C14.1045 18.0421 13.6998 18.1669 13.2888 18.2511C12.867 18.3379 12.4332 18.3822 11.9997 18.3822C11.5659 18.3822 11.1322 18.3379 10.7109 18.2511C10.2993 18.1669 9.89462 18.0421 9.50835 17.8792C9.12896 17.7184 8.76267 17.5203 8.42079 17.29C8.08234 17.0606 7.76357 16.7982 7.47449 16.5098C7.18511 16.2202 6.92196 15.9026 6.6932 15.5639C6.46256 15.2232 6.26379 14.8577 6.10317 14.4786C5.93939 14.0926 5.81409 13.6887 5.72939 13.2775C5.64377 12.8561 5.60001 12.4239 5.60001 11.9911C5.60001 11.558 5.64374 11.1248 5.72942 10.7044C5.81411 10.2931 5.93941 9.88869 6.10319 9.5033C6.26381 9.12384 6.46259 8.75811 6.69322 8.41731C6.92198 8.07842 7.18514 7.76134 7.47452 7.47143C7.7636 7.18307 8.08236 6.92127 8.42081 6.69222C8.7627 6.46096 9.12898 6.26282 9.50837 6.10178C9.89465 5.93854 10.2993 5.81342 10.7109 5.7298C11.1322 5.64368 11.566 5.59998 11.9997 5.59998C12.4332 5.59998 12.867 5.64368 13.2889 5.7298C13.6998 5.81345 14.1045 5.93857 14.4911 6.10178C14.8705 6.2628 15.2365 6.46096 15.5783 6.69222C15.9168 6.92127 16.2356 7.18307 16.5253 7.47143C16.8144 7.76134 17.0775 8.07842 17.3059 8.41731C17.5378 8.75811 17.7363 9.12386 17.8962 9.5033C18.06 9.88869 18.185 10.2931 18.2694 10.7044C18.3559 11.1248 18.4 11.558 18.4 11.9911ZM9.6677 7.05451C8.14354 7.77322 7.00598 9.17563 6.65127 10.8658C6.79536 10.867 9.07298 10.8958 11.6972 10.1995C10.7512 8.52121 9.74052 7.15159 9.6677 7.05451ZM12.15 11.0399C9.3358 11.8812 6.63534 11.8207 6.53847 11.817C6.53689 11.8756 6.53408 11.9324 6.53408 11.9911C6.53408 13.3932 7.06379 14.6714 7.93447 15.6379C7.93259 15.6351 9.42831 12.9853 12.3778 12.0329C12.4491 12.0092 12.5216 11.988 12.5935 11.9674C12.4563 11.6572 12.3066 11.3464 12.15 11.0399ZM15.6093 7.89492C14.647 7.04764 13.3835 6.5337 11.9997 6.5337C11.5556 6.5337 11.1246 6.58738 10.7118 6.68661C10.7937 6.79647 11.8203 8.15644 12.755 9.87028C14.8174 9.09824 15.5958 7.91488 15.6093 7.89492ZM12.966 12.8717C12.9538 12.8758 12.9417 12.8793 12.9298 12.8836C9.70498 14.0062 8.65187 16.2685 8.64048 16.2932C9.56836 17.0138 10.7322 17.4485 11.9997 17.4485C12.7566 17.4485 13.4776 17.2946 14.1336 17.016C14.0526 16.5391 13.7351 14.8677 12.966 12.8717ZM15.0539 16.5173C16.2812 15.6903 17.1528 14.3772 17.3959 12.8561C17.2834 12.8199 15.7543 12.3365 13.9901 12.619C14.707 14.5862 14.9983 16.1884 15.0539 16.5173ZM13.1757 10.6835C13.3026 10.9438 13.4254 11.2087 13.5389 11.4749C13.5792 11.5704 13.6186 11.6641 13.657 11.7577C15.5346 11.5217 17.3844 11.9187 17.4635 11.9349C17.451 10.6411 16.9875 9.45367 16.2206 8.52404C16.2103 8.53868 15.3337 9.80349 13.1757 10.6835Z" fill="white"/>
</svg>
